<svg width="84" height="37" viewBox="0 0 84 37" fill="none" xmlns="http://www.w3.org/2000/svg">
<path d="M8.80347 1.11522C4.7994 1.72094 1.67079 4.88985 1.09845 8.98729C1.03134 9.46411 0.998542 10.1987 1.00005 11.1912C1.01061 19.5678 1.01174 27.8269 1.00344 35.9686C1.00341 35.9815 1.01127 35.993 1.02337 35.9978C1.03547 36.0025 1.04946 35.9995 1.05887 35.9903C1.73979 35.2899 2.79736 34.861 3.72938 34.5621C4.62446 34.2754 5.50369 34.0423 6.3671 33.8628C9.75699 33.159 13.3821 32.745 16.6454 32.494C23.3595 31.9784 30.2524 31.7172 37.2177 31.7092C48.9276 31.6955 60.7848 31.7023 72.7895 31.7297C73.809 31.732 74.5619 31.7008 75.0483 31.6362C79.101 31.0989 82.2749 27.9095 82.8766 23.8223C82.9611 23.2466 83.0022 22.5333 82.9999 21.6823C82.9894 17.7408 82.9882 14.0023 82.9965 10.4668C83.0018 8.13594 82.316 6.12296 80.9391 4.42786C79.4732 2.62249 77.6004 1.5255 75.3209 1.1369C74.7818 1.04488 74.076 0.999249 73.2035 1.00001C52.6628 1.0137 31.9027 1.01484 10.9231 1.00343C10.0047 1.00267 9.29814 1.03993 8.80347 1.11522" stroke="#F58E91" stroke-width="0.145061"/>
<path d="M14.0745 14.9452C13.7159 14.8973 13.5135 14.6441 13.501 14.2962C13.4701 13.4376 13.4803 12.4573 13.5316 11.3554C13.5745 10.4599 14.1763 10.2341 14.9488 10.1987C15.6938 10.1653 16.4441 10.1835 17.1997 10.2535C18.0808 10.3345 18.9257 10.6025 19.4494 11.3326C19.7141 11.7022 20.1032 12.3946 20.5443 12.5132C21.5318 12.779 22.1505 12.0398 22.2138 11.1181C22.2734 10.2558 22.1245 9.41582 21.7671 8.5983C21.4877 7.95836 20.8169 7.0629 20.0105 7.30017C18.5547 7.72908 17.1839 7.77014 15.6535 7.76672C13.2035 7.76064 10.6209 7.76178 7.90549 7.77014C7.46436 7.77167 7.07941 7.82718 6.75064 7.93669C5.89893 8.21959 5.68176 9.43787 6.47578 9.90328C6.74725 10.063 7.10807 10.0641 7.34899 10.266C7.70755 10.566 7.86364 11.4124 7.92698 11.8493C8.02652 12.549 8.09438 13.257 8.13058 13.9734C8.25047 16.3574 8.21918 18.4879 8.0367 20.3648C7.97788 20.9694 7.87947 21.5504 7.74148 22.1078C7.57182 22.7945 7.09449 22.9633 6.54026 23.2223C5.94869 23.4983 6.02561 24.3037 6.38643 24.7018C6.6511 24.9949 7.11712 25.0725 7.49716 25.0725C11.1242 25.0695 14.6412 25.0695 18.048 25.0725C18.9257 25.0725 19.8012 25.1592 20.6371 25.3041C21.249 25.4102 21.5329 25.1923 21.8519 24.7018C22.4928 23.7124 22.9392 22.5968 23.1911 21.3549C23.2906 20.8644 23.2816 20.4157 23.164 20.0089C22.9875 19.394 22.4729 18.9799 21.8134 19.094C21.4801 19.1518 21.2275 19.3305 21.0556 19.6302C20.8663 19.9579 20.6835 20.2933 20.507 20.6363C19.5467 22.5002 17.6148 22.5869 15.727 22.5344C15.3349 22.5238 14.9285 22.4743 14.5077 22.3861C14.1231 22.3055 13.9026 22.0462 13.846 21.6082C13.6861 20.3617 13.6364 19.2959 13.6967 18.4107C13.7367 17.8244 13.981 17.4989 14.4296 17.4343C14.7637 17.3864 15.1045 17.4274 15.4522 17.5575C16.1636 17.8233 16.2609 18.6263 16.3672 19.3096C16.443 19.7956 16.745 20.0374 17.2382 19.9735C18.082 19.8629 18.3625 18.9845 18.5265 18.259C18.8922 16.6415 18.8726 15.038 18.4677 13.4486C18.3715 13.071 18.1973 12.7015 17.8784 12.463C17.2291 11.9771 16.4011 12.3832 16.2586 13.1292C16.1998 13.4372 16.147 13.7703 16.1003 14.1285C16.0317 14.6547 15.7726 14.9388 15.3232 14.9806C14.9401 15.0163 14.5239 15.0046 14.0745 14.9452" stroke="#F58E91" stroke-width="0.145061"/>
<path d="M31.9827 23.9078C32.1433 22.8093 30.8075 23.1321 30.6491 22.361C30.5518 21.8853 30.5292 21.3697 30.5269 20.8655C30.5194 19.2716 30.516 17.6966 30.5168 16.1407C30.5168 13.8718 30.6378 11.587 30.8244 9.34204C30.8776 8.70894 30.8165 7.87736 30.0553 7.78497C29.8223 7.75683 29.5651 7.75949 29.2839 7.79295C27.6789 7.98345 26.0648 8.25722 24.5898 8.85267C23.9542 9.10933 23.2303 9.55421 23.116 10.2831C22.9882 11.1056 23.6329 11.4535 24.2041 11.8185C24.5314 12.0277 24.7463 12.3459 24.8489 12.7733C24.9868 13.3429 25.0596 14.0327 25.0672 14.8426C25.083 16.4738 25.0943 18.0925 25.0491 19.6849C25.0294 20.3488 24.9823 20.9857 24.9077 21.5956C24.8556 22.0234 24.7143 22.6599 24.2912 22.8538C24.0492 22.9656 23.6408 23.1264 23.5108 23.3774C23.2845 23.82 23.608 24.3869 23.9689 24.6732C24.5921 25.1695 25.6644 25.2607 26.4346 25.2984C27.3772 25.344 28.3896 25.3421 29.4716 25.2927C30.45 25.2493 31.8175 25.0337 31.9827 23.9078" stroke="#F58E91" stroke-width="0.145061"/>
<path d="M47.9218 15.4061C47.5712 16.4008 48.1831 17.2495 49.2022 17.2575C50.5177 17.2677 51.2416 16.1008 51.9406 15.1711C52.3308 14.6521 53.0332 14.3851 53.5637 14.8437C54.1236 15.3274 54.1157 16.5685 54.1191 17.2563C54.1202 17.6544 53.9811 17.9271 53.5513 17.935C52.8568 17.948 52.194 17.9833 51.5628 18.0411C50.1195 18.1746 48.4715 18.9058 47.6368 20.1024C46.4729 21.7667 47.1334 23.9523 48.8131 24.9002C49.701 25.4022 51.0764 25.5071 52.0876 25.3143C52.709 25.1957 53.2579 24.971 53.7345 24.6402C53.9502 24.4911 54.1771 24.3489 54.4154 24.2135C54.6292 24.0926 54.8916 24.1793 55.0454 24.3721C55.8485 25.3805 56.9875 25.5961 58.1922 25.271C59.4217 24.9379 60.8072 23.9341 60.9475 22.5709C60.9679 22.3724 60.9222 22.2089 60.8106 22.0804C60.5595 21.7929 60.1003 22.0393 59.865 21.6435C59.6976 21.3606 59.5958 21.0481 59.5596 20.7058C59.4069 19.2765 59.5155 17.8335 59.4861 16.4099C59.4567 14.9848 58.8063 13.9243 57.535 13.2285C55.7139 12.2303 53.5049 12.2988 51.5062 12.8794C50.2179 13.2536 48.3799 14.1057 47.9218 15.4061" stroke="#F58E91" stroke-width="0.145061"/>
<path d="M42.6259 16.0551C42.4163 16.4574 42.1882 16.8753 41.9416 17.3088C41.7953 17.5673 41.6419 17.7301 41.4812 17.797C41.1675 17.9293 40.881 17.8377 40.6216 17.5221C40.2506 17.0689 39.9407 16.5088 39.6918 15.8418C39.3695 14.9749 40.1228 14.8711 40.4338 14.2676C41.2256 12.7311 38.2938 12.5862 37.5439 12.5554C36.4535 12.5113 35.379 12.5296 34.3203 12.6102C33.5398 12.6695 31.2946 12.8988 31.5197 14.1752C31.6113 14.6943 32.1079 14.9806 32.6044 15.0969C33.0704 15.2064 33.4527 15.6513 33.671 16.062C34.7697 18.1229 35.9404 20.3522 37.1831 22.75C37.5688 23.4949 38.0009 24.1394 38.5121 24.8249C39.1546 25.6885 40.1714 25.5915 40.806 24.8124C41.2252 24.2968 41.6226 23.669 41.9981 22.9291C43.1926 20.5769 44.3591 18.2822 45.4978 16.0449C45.6689 15.708 45.8597 15.4095 46.0701 15.1494C46.3811 14.7638 46.898 14.6612 47.3414 14.4867C47.6581 14.3623 47.9635 14.1182 47.993 13.7509C48.0721 12.7767 46.9218 12.5954 46.1832 12.5577C45.077 12.5018 43.8079 12.4938 42.7492 12.8224C42.0875 13.0288 41.7516 13.6277 42.2074 14.2551C42.3386 14.4353 42.486 14.6083 42.6497 14.7741C42.9924 15.122 42.8227 15.6764 42.6259 16.0551" stroke="#F58E91" stroke-width="0.145061"/>
<path d="M68.3055 17.9715C68.327 17.1662 68.5645 16.3141 69.5045 16.2365C70.3136 16.1696 70.8275 16.4966 71.0461 17.2175C71.1804 17.6578 71.2626 18.1191 71.2927 18.6012C71.3719 19.8628 71.3191 21.0667 71.1344 22.2127C71.0801 22.5496 70.976 22.8173 70.8222 23.0158C70.6141 23.2838 70.268 23.5074 70.2453 23.8804C70.1967 24.6789 70.7724 25.0223 71.4454 25.1603C71.9718 25.2683 72.5924 25.325 73.3072 25.3303C74.3983 25.3379 75.3639 25.29 76.2039 25.1866C77.0319 25.0839 78.2557 24.7097 77.9684 23.5656C77.9194 23.3709 77.7946 23.185 77.5941 23.0078C77.257 22.7089 76.9448 22.3199 76.9188 21.8454C76.8396 20.3792 76.765 18.8035 76.6948 17.1183C76.6662 16.4339 76.5964 15.8354 76.4856 15.3228C76.1745 13.8901 75.0366 13.0037 73.6556 12.6752C72.1637 12.3204 70.4387 12.576 69.4864 13.9437C69.2454 14.2905 68.862 14.8255 68.4141 14.4673C68.0182 14.1502 68.3949 13.4555 68.1449 13.0265C67.9006 12.6068 67.4971 12.4573 66.9346 12.5782C65.6173 12.8604 64.2173 13.2847 62.7349 13.8513C62.3427 14.0019 61.9978 14.1756 61.6999 14.3726C61.0857 14.7798 61.0846 15.6148 61.7271 16.005C62.21 16.2981 62.6489 16.5491 62.6681 17.1947C62.6983 18.213 62.6719 19.5009 62.5889 21.0583C62.5618 21.5564 62.5105 21.9948 62.4351 22.3736C62.3084 23.0089 61.5144 23.0603 61.3979 23.6158C61.097 25.0474 63.1115 25.2641 64.0153 25.3075C65.3598 25.3729 66.5531 25.3071 67.5952 25.1101C67.9579 25.0417 68.2923 24.9158 68.5985 24.7326C69.1244 24.4177 69.2907 23.8074 68.94 23.2987C68.6324 22.8527 68.3021 22.3667 68.2897 21.8078C68.2648 20.572 68.2701 19.2933 68.3055 17.9715" stroke="#F58E91" stroke-width="0.145061"/>
<path d="M53.7658 22.4797C54.2849 22.053 54.2397 20.8017 54.1356 20.2473C54.0768 19.937 53.8845 19.7811 53.5588 19.7796C52.5759 19.7762 52.0171 20.764 52.1834 21.6823C52.2693 22.1606 52.4986 22.4698 52.8711 22.6097C53.2081 22.7359 53.5064 22.6926 53.7658 22.4797" stroke="#F58E91" stroke-width="0.145061"/>
<path fill-rule="evenodd" clip-rule="evenodd" d="M8.80347 1.11522C4.7994 1.72094 1.67079 4.88985 1.09845 8.98729C1.03134 9.46411 0.998542 10.1987 1.00005 11.1912C1.01061 19.5678 1.01174 27.8269 1.00344 35.9686C1.00341 35.9815 1.01127 35.993 1.02337 35.9978C1.03547 36.0025 1.04946 35.9995 1.05887 35.9903C1.73979 35.2899 2.79736 34.861 3.72938 34.5621C4.62446 34.2754 5.50369 34.0423 6.3671 33.8628C9.75699 33.159 13.3821 32.745 16.6454 32.494C23.3595 31.9784 30.2524 31.7172 37.2177 31.7092C48.9276 31.6955 60.7848 31.7023 72.7895 31.7297C73.809 31.732 74.5619 31.7008 75.0483 31.6362C79.101 31.0989 82.2749 27.9095 82.8766 23.8223C82.9611 23.2466 83.0022 22.5333 82.9999 21.6823C82.9894 17.7408 82.9882 14.0023 82.9965 10.4668C83.0018 8.13594 82.316 6.12296 80.9391 4.42786C79.4732 2.62249 77.6004 1.5255 75.3209 1.1369C74.7818 1.04488 74.076 0.999249 73.2035 1.00001C52.6628 1.0137 31.9027 1.01484 10.9231 1.00343C10.0047 1.00267 9.29814 1.03993 8.80347 1.11522ZM13.501 14.2962C13.5135 14.6441 13.7159 14.8973 14.0745 14.9452C14.5239 15.0046 14.9401 15.0163 15.3232 14.9806C15.7726 14.9388 16.0317 14.6547 16.1003 14.1285C16.147 13.7703 16.1998 13.4372 16.2586 13.1292C16.4011 12.3832 17.2291 11.9771 17.8784 12.463C18.1973 12.7015 18.3715 13.071 18.4677 13.4486C18.8726 15.038 18.8922 16.6415 18.5265 18.259C18.3625 18.9845 18.082 19.8629 17.2382 19.9735C16.745 20.0374 16.443 19.7956 16.3672 19.3096L16.3551 19.2313C16.2526 18.5661 16.1366 17.8132 15.4522 17.5575C15.1045 17.4274 14.7637 17.3864 14.4296 17.4343C13.981 17.4989 13.7367 17.8244 13.6967 18.4107C13.6364 19.2959 13.6861 20.3617 13.846 21.6082C13.9026 22.0462 14.1231 22.3055 14.5077 22.3861C14.9285 22.4743 15.3349 22.5238 15.727 22.5344C17.6148 22.5869 19.5467 22.5002 20.507 20.6363C20.6835 20.2933 20.8663 19.9579 21.0556 19.6302C21.2275 19.3305 21.4801 19.1518 21.8134 19.094C22.4729 18.9799 22.9875 19.394 23.164 20.0089C23.2816 20.4157 23.2906 20.8644 23.1911 21.3549C22.9392 22.5968 22.4928 23.7124 21.8519 24.7018C21.5329 25.1923 21.249 25.4102 20.6371 25.3041C19.8012 25.1592 18.9257 25.0725 18.048 25.0725C14.6412 25.0695 11.1242 25.0695 7.49716 25.0725C7.11712 25.0725 6.6511 24.9949 6.38643 24.7018C6.02561 24.3037 5.94869 23.4983 6.54026 23.2223C6.58269 23.2024 6.62467 23.1831 6.6661 23.1641L6.66625 23.164L6.66632 23.164C7.1659 22.9344 7.58483 22.7418 7.74148 22.1078C7.87947 21.5504 7.97788 20.9694 8.0367 20.3648C8.21918 18.4879 8.25047 16.3574 8.13058 13.9733C8.09438 13.257 8.02652 12.549 7.92698 11.8493C7.86364 11.4124 7.70755 10.566 7.34899 10.266C7.21388 10.1528 7.04107 10.1027 6.86746 10.0524C6.73148 10.013 6.59501 9.97342 6.47578 9.90328C5.68176 9.43787 5.89893 8.21959 6.75064 7.93669C7.07941 7.82718 7.46436 7.77167 7.90549 7.77014C10.6209 7.76178 13.2035 7.76064 15.6535 7.76672C17.1839 7.77014 18.5547 7.72908 20.0105 7.30017C20.8169 7.0629 21.4877 7.95836 21.7671 8.5983C22.1245 9.41581 22.2734 10.2558 22.2138 11.1181C22.1505 12.0398 21.5318 12.779 20.5443 12.5132C20.1803 12.4153 19.8516 11.9265 19.5991 11.551C19.5457 11.4715 19.4957 11.3971 19.4494 11.3326C18.9257 10.6025 18.0808 10.3345 17.1997 10.2535C16.4441 10.1835 15.6938 10.1653 14.9488 10.1987C14.1763 10.2341 13.5745 10.4599 13.5316 11.3554C13.4803 12.4573 13.4701 13.4376 13.501 14.2962ZM31.9827 23.9078C32.0731 23.289 31.6887 23.1212 31.3074 22.9548C31.0119 22.8259 30.7182 22.6977 30.6491 22.361C30.5518 21.8853 30.5292 21.3697 30.5269 20.8655C30.5194 19.2716 30.516 17.6966 30.5168 16.1407C30.5168 13.8718 30.6378 11.587 30.8244 9.34204C30.8776 8.70894 30.8165 7.87736 30.0553 7.78496C29.8223 7.75683 29.5651 7.75949 29.2839 7.79295C27.6788 7.98345 26.0648 8.25722 24.5898 8.85267C23.9542 9.10933 23.2303 9.55421 23.116 10.2831C22.9961 11.0546 23.556 11.4086 24.0973 11.7508C24.1331 11.7734 24.1687 11.7959 24.2041 11.8185C24.5314 12.0277 24.7463 12.3459 24.8488 12.7733C24.9868 13.3429 25.0596 14.0327 25.0672 14.8426C25.083 16.4738 25.0943 18.0925 25.0491 19.6849C25.0294 20.3488 24.9823 20.9857 24.9077 21.5956C24.8556 22.0234 24.7142 22.6599 24.2912 22.8538C24.2654 22.8657 24.2378 22.8782 24.2087 22.8912L24.2083 22.8915C23.9649 23.0011 23.6269 23.1533 23.5108 23.3774C23.2845 23.82 23.608 24.3869 23.9689 24.6732C24.5921 25.1695 25.6644 25.2607 26.4346 25.2984C27.3772 25.344 28.3896 25.3421 29.4716 25.2926C30.45 25.2493 31.8175 25.0337 31.9827 23.9078ZM49.2022 17.2575C48.1831 17.2495 47.5712 16.4008 47.9218 15.4061C48.3799 14.1057 50.2179 13.2535 51.5063 12.8794C53.5049 12.2988 55.7139 12.2303 57.535 13.2285C58.8063 13.9243 59.4567 14.9848 59.4861 16.4099C59.4963 16.9015 59.49 17.3954 59.4837 17.8903V17.8904V17.8905C59.4717 18.8286 59.4597 19.7701 59.5597 20.7058C59.5959 21.0481 59.6977 21.3606 59.8651 21.6435C59.9932 21.8592 60.1879 21.8842 60.3791 21.9088C60.5389 21.9293 60.6964 21.9496 60.8106 22.0804C60.9222 22.2089 60.9679 22.3724 60.9475 22.5709C60.8073 23.9341 59.4217 24.9379 58.1922 25.271C56.9875 25.5961 55.8485 25.3805 55.0455 24.3721C54.8916 24.1793 54.6292 24.0926 54.4154 24.2135C54.1772 24.3489 53.9502 24.4911 53.7345 24.6402C53.2579 24.971 52.709 25.1957 52.0876 25.3143C51.0764 25.5071 49.701 25.4022 48.8131 24.9002C47.1334 23.9523 46.4729 21.7667 47.6368 20.1024C48.4715 18.9058 50.1195 18.1746 51.5628 18.0411C52.194 17.9833 52.8568 17.948 53.5513 17.935C53.9811 17.9271 54.1202 17.6544 54.1191 17.2563L54.1189 17.2068C54.1158 16.5104 54.1104 15.316 53.5637 14.8437C53.0332 14.3851 52.3308 14.6521 51.9406 15.1711C51.8755 15.2577 51.8101 15.3464 51.7441 15.4361C51.1015 16.3081 50.3951 17.2668 49.2022 17.2575ZM42.6259 16.0551C42.4163 16.4574 42.1882 16.8753 41.9416 17.3088C41.7953 17.5673 41.6418 17.7301 41.4812 17.797C41.1675 17.9293 40.881 17.8377 40.6216 17.5221C40.2506 17.0689 39.9407 16.5088 39.6918 15.8418C39.4792 15.27 39.7346 15.0301 40.0224 14.7599C40.1709 14.6205 40.328 14.473 40.4338 14.2676C41.2256 12.7311 38.2938 12.5862 37.5439 12.5554C36.4535 12.5113 35.379 12.5296 34.3203 12.6102C33.5398 12.6695 31.2946 12.8988 31.5197 14.1752C31.6113 14.6943 32.1079 14.9806 32.6044 15.0969C33.0704 15.2064 33.4527 15.6513 33.671 16.062C34.7697 18.1229 35.9404 20.3522 37.1831 22.75C37.5688 23.4949 38.0009 24.1394 38.5121 24.8249C39.1546 25.6885 40.1714 25.5915 40.806 24.8124C41.2252 24.2968 41.6226 23.669 41.9981 22.9291C43.1926 20.5769 44.3591 18.2822 45.4978 16.0449C45.6689 15.708 45.8597 15.4095 46.0701 15.1494C46.3141 14.847 46.6848 14.7186 47.0473 14.5931C47.1469 14.5586 47.2459 14.5243 47.3414 14.4867C47.6581 14.3623 47.9635 14.1182 47.993 13.7509C48.0721 12.7767 46.9218 12.5954 46.1832 12.5577C45.077 12.5018 43.8079 12.4938 42.7492 12.8224C42.0875 13.0288 41.7516 13.6277 42.2074 14.2551C42.3386 14.4353 42.486 14.6083 42.6497 14.7741C42.9924 15.122 42.8227 15.6764 42.6259 16.0551ZM69.5045 16.2365C68.5645 16.3141 68.327 17.1662 68.3055 17.9715C68.2701 19.2933 68.2648 20.572 68.2897 21.8078C68.3021 22.3667 68.6324 22.8527 68.94 23.2987C69.2907 23.8074 69.1244 24.4177 68.5985 24.7326C68.2923 24.9158 67.9579 25.0417 67.5952 25.1101C66.5531 25.3071 65.3598 25.3729 64.0153 25.3075C63.1115 25.2641 61.097 25.0474 61.3979 23.6158C61.4541 23.3479 61.6678 23.1973 61.8882 23.0419C62.125 22.875 62.3695 22.7026 62.4351 22.3736C62.5105 21.9948 62.5618 21.5564 62.5889 21.0583C62.6719 19.5009 62.6983 18.213 62.6681 17.1947C62.6493 16.5641 62.2302 16.31 61.7607 16.0254L61.7271 16.005C61.0846 15.6148 61.0857 14.7798 61.6999 14.3726C61.9978 14.1756 62.3427 14.0019 62.7349 13.8513C64.2173 13.2847 65.6173 12.8604 66.9346 12.5782C67.4971 12.4573 67.9006 12.6068 68.1449 13.0265C68.2571 13.219 68.243 13.4651 68.2293 13.7065C68.2124 14.003 68.1959 14.2925 68.4141 14.4673C68.862 14.8255 69.2454 14.2905 69.4864 13.9437C70.4387 12.576 72.1637 12.3204 73.6556 12.6752C75.0366 13.0037 76.1745 13.8901 76.4856 15.3228C76.5964 15.8354 76.6662 16.4339 76.6948 17.1183C76.765 18.8035 76.8396 20.3792 76.9188 21.8454C76.9448 22.3199 77.257 22.7089 77.5941 23.0078C77.7946 23.185 77.9194 23.3709 77.9684 23.5656C78.2557 24.7097 77.0319 25.0839 76.2039 25.1866C75.3639 25.29 74.3983 25.3379 73.3072 25.3303C72.5924 25.325 71.9718 25.2683 71.4454 25.1603C70.7724 25.0223 70.1967 24.6789 70.2453 23.8804C70.2616 23.6115 70.4462 23.4202 70.6258 23.2339C70.6953 23.1619 70.7641 23.0906 70.8222 23.0158C70.976 22.8173 71.0801 22.5496 71.1344 22.2127C71.3191 21.0667 71.3719 19.8628 71.2927 18.6012C71.2626 18.1191 71.1804 17.6578 71.0461 17.2175C70.8275 16.4966 70.3136 16.1696 69.5045 16.2365Z" fill="#EB1C23"/>
<path d="M13.501 14.2962C13.5135 14.6441 13.7159 14.8973 14.0745 14.9452C14.5239 15.0046 14.9401 15.0163 15.3232 14.9806C15.7726 14.9388 16.0317 14.6547 16.1003 14.1285C16.147 13.7703 16.1998 13.4372 16.2586 13.1292C16.4011 12.3832 17.2291 11.9771 17.8784 12.463C18.1973 12.7015 18.3715 13.071 18.4677 13.4486C18.8726 15.038 18.8922 16.6415 18.5265 18.259C18.3625 18.9845 18.082 19.8629 17.2382 19.9735C16.745 20.0374 16.443 19.7956 16.3672 19.3096C16.2609 18.6263 16.1636 17.8233 15.4522 17.5575C15.1045 17.4274 14.7637 17.3864 14.4296 17.4343C13.981 17.4989 13.7367 17.8244 13.6967 18.4107C13.6364 19.2959 13.6861 20.3617 13.846 21.6082C13.9026 22.0462 14.1231 22.3055 14.5077 22.3861C14.9285 22.4743 15.3349 22.5238 15.727 22.5344C17.6148 22.5869 19.5467 22.5002 20.507 20.6363C20.6835 20.2933 20.8663 19.9579 21.0556 19.6302C21.2275 19.3305 21.4801 19.1518 21.8134 19.094C22.4729 18.9799 22.9875 19.394 23.164 20.0089C23.2816 20.4157 23.2906 20.8644 23.1911 21.3549C22.9392 22.5968 22.4928 23.7124 21.8519 24.7018C21.5329 25.1923 21.249 25.4102 20.6371 25.3041C19.8012 25.1592 18.9257 25.0725 18.048 25.0725C14.6412 25.0695 11.1242 25.0695 7.49716 25.0725C7.11712 25.0725 6.6511 24.9949 6.38643 24.7018C6.02561 24.3037 5.94869 23.4983 6.54026 23.2223C7.09449 22.9633 7.57182 22.7945 7.74148 22.1078C7.87947 21.5504 7.97788 20.9694 8.0367 20.3648C8.21918 18.4879 8.25047 16.3574 8.13058 13.9734C8.09438 13.257 8.02652 12.549 7.92698 11.8493C7.86364 11.4124 7.70755 10.566 7.34899 10.266C7.10807 10.0641 6.74725 10.063 6.47578 9.90328C5.68176 9.43787 5.89893 8.21959 6.75064 7.93669C7.07941 7.82718 7.46436 7.77167 7.90549 7.77014C10.6209 7.76178 13.2035 7.76064 15.6535 7.76672C17.1839 7.77014 18.5547 7.72908 20.0105 7.30017C20.8169 7.0629 21.4877 7.95836 21.7671 8.5983C22.1245 9.41582 22.2734 10.2558 22.2138 11.1181C22.1505 12.0398 21.5318 12.779 20.5443 12.5132C20.1032 12.3946 19.7141 11.7022 19.4494 11.3326C18.9257 10.6025 18.0808 10.3345 17.1997 10.2535C16.4441 10.1835 15.6938 10.1653 14.9488 10.1987C14.1763 10.2341 13.5745 10.4599 13.5316 11.3554C13.4803 12.4573 13.4701 13.4376 13.501 14.2962Z" fill="white"/>
<path d="M30.6491 22.361C30.8075 23.1321 32.1433 22.8093 31.9827 23.9078C31.8175 25.0337 30.45 25.2493 29.4716 25.2927C28.3896 25.3421 27.3772 25.344 26.4346 25.2984C25.6644 25.2607 24.5921 25.1695 23.9689 24.6732C23.608 24.3869 23.2845 23.82 23.5108 23.3774C23.6408 23.1264 24.0492 22.9656 24.2912 22.8538C24.7143 22.6599 24.8556 22.0234 24.9077 21.5956C24.9823 20.9857 25.0294 20.3488 25.0491 19.6849C25.0943 18.0925 25.083 16.4738 25.0672 14.8426C25.0596 14.0327 24.9868 13.3429 24.8489 12.7733C24.7463 12.3459 24.5314 12.0277 24.2041 11.8185C23.6329 11.4535 22.9882 11.1056 23.116 10.2831C23.2303 9.55421 23.9542 9.10933 24.5898 8.85267C26.0648 8.25722 27.6789 7.98345 29.2839 7.79295C29.5651 7.75949 29.8223 7.75683 30.0553 7.78497C30.8165 7.87736 30.8776 8.70894 30.8244 9.34204C30.6378 11.587 30.5168 13.8718 30.5168 16.1407C30.516 17.6966 30.5194 19.2716 30.5269 20.8655C30.5292 21.3697 30.5518 21.8853 30.6491 22.361Z" fill="white"/>
<path fill-rule="evenodd" clip-rule="evenodd" d="M51.5062 12.8794C50.2179 13.2536 48.3799 14.1057 47.9218 15.4061C47.5712 16.4008 48.1831 17.2495 49.2022 17.2575C50.3951 17.2668 51.1015 16.3081 51.744 15.4361C51.8101 15.3464 51.8754 15.2577 51.9406 15.1711C52.3308 14.6521 53.0332 14.3851 53.5637 14.8437C54.1104 15.316 54.1157 16.5104 54.1188 17.2068C54.1189 17.2236 54.119 17.2401 54.1191 17.2563C54.1202 17.6544 53.9811 17.9271 53.5513 17.935C52.8568 17.948 52.194 17.9833 51.5628 18.0411C50.1195 18.1746 48.4715 18.9058 47.6368 20.1024C46.4729 21.7667 47.1334 23.9523 48.8131 24.9002C49.701 25.4022 51.0764 25.5071 52.0876 25.3143C52.709 25.1957 53.2579 24.971 53.7345 24.6402C53.9502 24.4911 54.1771 24.3489 54.4154 24.2135C54.6292 24.0926 54.8916 24.1793 55.0454 24.3721C55.8485 25.3805 56.9875 25.5961 58.1922 25.271C59.4217 24.9379 60.8072 23.9341 60.9475 22.5709C60.9679 22.3724 60.9222 22.2089 60.8106 22.0804C60.6963 21.9496 60.5389 21.9293 60.3791 21.9088C60.1879 21.8842 59.9932 21.8592 59.865 21.6435C59.6976 21.3606 59.5958 21.0481 59.5596 20.7058C59.4597 19.7701 59.4717 18.8286 59.4837 17.8904C59.49 17.3955 59.4963 16.9016 59.4861 16.4099C59.4567 14.9848 58.8063 13.9243 57.535 13.2285C55.7139 12.2303 53.5049 12.2988 51.5062 12.8794ZM54.1354 20.2473C54.2395 20.8016 54.2847 22.053 53.7655 22.4796C53.5061 22.6926 53.2079 22.7359 52.8708 22.6097C52.4983 22.4698 52.2691 22.1606 52.1831 21.6823C52.0169 20.764 52.5756 19.7761 53.5585 19.7796C53.8843 19.7811 54.0766 19.937 54.1354 20.2473Z" fill="white"/>
<path d="M42.6259 16.0552C42.8227 15.6764 42.9924 15.122 42.6497 14.7741C42.486 14.6083 42.3386 14.4353 42.2074 14.2551C41.7516 13.6277 42.0875 13.0288 42.7492 12.8224C43.8079 12.4938 45.077 12.5018 46.1832 12.5577C46.9218 12.5954 48.0721 12.7767 47.993 13.7509C47.9635 14.1182 47.6581 14.3623 47.3414 14.4867C46.898 14.6612 46.3811 14.7639 46.0701 15.1494C45.8597 15.4095 45.6689 15.708 45.4978 16.0449C44.3591 18.2822 43.1926 20.5769 41.9981 22.9291C41.6226 23.669 41.2252 24.2968 40.806 24.8124C40.1714 25.5915 39.1546 25.6885 38.5121 24.825C38.0009 24.1394 37.5688 23.4949 37.1831 22.75C35.9404 20.3522 34.7697 18.1229 33.671 16.062C33.4527 15.6513 33.0704 15.2065 32.6044 15.097C32.1079 14.9806 31.6113 14.6943 31.5197 14.1753C31.2946 12.8988 33.5398 12.6695 34.3203 12.6102C35.379 12.5296 36.4535 12.5113 37.5439 12.5554C38.2938 12.5862 41.2256 12.7311 40.4338 14.2677C40.1228 14.8711 39.3695 14.9749 39.6918 15.8418C39.9407 16.5088 40.2506 17.0689 40.6216 17.5221C40.881 17.8377 41.1675 17.9293 41.4812 17.797C41.6419 17.7301 41.7953 17.5674 41.9416 17.3088C42.1882 16.8753 42.4163 16.4574 42.6259 16.0552Z" fill="white"/>
<path d="M69.5045 16.2365C68.5645 16.3141 68.327 17.1662 68.3055 17.9716C68.2701 19.2933 68.2648 20.572 68.2897 21.8078C68.3021 22.3667 68.6324 22.8527 68.94 23.2987C69.2907 23.8075 69.1244 24.4177 68.5985 24.7326C68.2923 24.9158 67.9579 25.0417 67.5952 25.1101C66.5531 25.3071 65.3598 25.3729 64.0153 25.3075C63.1115 25.2641 61.097 25.0474 61.3979 23.6158C61.5144 23.0603 62.3084 23.009 62.4351 22.3736C62.5105 21.9949 62.5618 21.5564 62.5889 21.0583C62.6719 19.5009 62.6983 18.213 62.6681 17.1947C62.6489 16.5491 62.21 16.2981 61.7271 16.005C61.0846 15.6148 61.0857 14.7798 61.6999 14.3726C61.9978 14.1756 62.3427 14.0019 62.7349 13.8513C64.2173 13.2847 65.6173 12.8604 66.9346 12.5783C67.4971 12.4573 67.9006 12.6068 68.1449 13.0266C68.3949 13.4555 68.0182 14.1502 68.4141 14.4673C68.862 14.8255 69.2454 14.2905 69.4864 13.9437C70.4387 12.576 72.1637 12.3205 73.6556 12.6752C75.0366 13.0037 76.1745 13.8901 76.4856 15.3228C76.5964 15.8354 76.6662 16.4339 76.6948 17.1183C76.765 18.8035 76.8396 20.3792 76.9188 21.8454C76.9448 22.32 77.257 22.7089 77.5941 23.0078C77.7946 23.185 77.9194 23.3709 77.9684 23.5656C78.2557 24.7098 77.0319 25.0839 76.2039 25.1866C75.3639 25.29 74.3983 25.3379 73.3072 25.3303C72.5924 25.325 71.9718 25.2683 71.4454 25.1603C70.7724 25.0223 70.1967 24.679 70.2453 23.8805C70.268 23.5074 70.6141 23.2839 70.8222 23.0158C70.976 22.8173 71.0801 22.5496 71.1344 22.2127C71.3191 21.0667 71.3719 19.8629 71.2927 18.6012C71.2626 18.1191 71.1804 17.6579 71.0461 17.2175C70.8275 16.4966 70.3136 16.1696 69.5045 16.2365Z" fill="white"/>
<path d="M53.7658 22.4797C53.5064 22.6926 53.2081 22.7359 52.8711 22.6097C52.4986 22.4698 52.2693 22.1606 52.1834 21.6823C52.0171 20.764 52.5759 19.7762 53.5588 19.7796C53.8845 19.7811 54.0768 19.937 54.1356 20.2473C54.2397 20.8017 54.2849 22.053 53.7658 22.4797Z" fill="#EB1C23"/>
</svg>
